# xmcd
#
# Track frame offsets:
#	150
#	16035
#	30998
#	45999
#
# Disc length: 817 seconds
#
# Revision: 0
# Processed by: cddbd v1.5.2PL0 Copyright (c) Steve Scherf et al.
# Submitted via: audiograbber 1.83.01
#
DISCID=1a032f04
DTITLE=1860 Party Project feat. Dennis W. und Steffi-Mira - Ein Stern, der Dein
DTITLE=e Farben trägt
DYEAR=2007
DGENRE=
TTITLE0=TSV 1860 Party Project - Ein Stern, der Deine Farben trägt (Party Versi
TTITLE0=on)
TTITLE1=TSV 1860 Party Project - Ein Stern, der Deine Farben trägt (Balladen Ve
TTITLE1=rsion Duett)
TTITLE2=TSV 1860 Party Project - Ein Stern, der Deine Farben trägt (Balladen Ve
TTITLE2=rsion)
TTITLE3=TSV 1860 Party Project - Ein Stern, der Deine Farben trägt (Christmas V
TTITLE3=ersion)
EXTD=
EXTT0=
EXTT1=
EXTT2=
EXTT3=
PLAYORDER=
